<svg width="122" height="118" viewBox="0 0 122 118" fill="none" xmlns="http://www.w3.org/2000/svg">
<path fill-rule="evenodd" clip-rule="evenodd" d="M22.4098 82.4343C22.4098 82.4343 22.4097 82.4344 22.5406 82.5078C22.612 82.6397 22.6121 82.6397 22.6121 82.6397L22.6194 82.6357L22.6419 82.6236L22.7304 82.5763C22.8083 82.5348 22.9232 82.474 23.071 82.3969C23.3665 82.2425 23.7933 82.0226 24.3184 81.7606C25.3686 81.2366 26.8109 80.5448 28.3798 79.873C29.9492 79.2009 31.6423 78.5502 33.1948 78.1074C34.753 77.6629 36.1485 77.4342 37.1322 77.588L37.1786 77.2916C36.126 77.1271 34.6764 77.3728 33.1125 77.8189C31.5429 78.2666 29.8369 78.9227 28.2617 79.5972C26.6859 80.272 25.2381 80.9665 24.1844 81.4922C23.6575 81.7551 23.229 81.9758 22.9321 82.131C22.9253 82.1345 22.9185 82.138 22.9119 82.1415C22.9569 82.0579 23.0076 81.9634 23.0634 81.8585C23.3077 81.3995 23.6489 80.744 24.0373 79.9577C24.8139 78.3856 25.78 76.288 26.5356 74.1906C27.2892 72.0983 27.8407 69.9868 27.7722 68.3941C27.7379 67.5967 27.5475 66.909 27.1285 66.4213C26.7048 65.9281 26.0675 65.6624 25.1923 65.6709L25.1952 65.9709C26.0048 65.963 26.5483 66.2064 26.9009 66.6168C27.2582 67.0327 27.4396 67.643 27.4725 68.407C27.5383 69.937 27.0053 72.0012 26.2533 74.0889C25.5031 76.1714 24.5424 78.2578 23.7684 79.8248C23.3815 80.608 23.0417 81.2608 22.7986 81.7176C22.677 81.946 22.5797 82.1254 22.5128 82.2476C22.4794 82.3087 22.4536 82.3555 22.4361 82.387L22.4163 82.4226L22.4098 82.4343ZM22.5406 82.5078L22.6121 82.6397L22.1564 82.8862L22.4098 82.4343L22.5406 82.5078Z" fill="#11071F"/>
<path fill-rule="evenodd" clip-rule="evenodd" d="M60.8032 46.1503C47.9197 53.0942 36.4218 62.8512 29.4709 74.1023L29.7261 74.26C36.6424 63.0648 48.0952 53.3404 60.9455 46.4144C73.7959 39.4884 88.03 35.3684 100.5 35.3684V35.0684C87.9696 35.0684 73.6867 39.2065 60.8032 46.1503Z" fill="#11071F"/>
</svg>
